# xmcd CD database file
#
# Track frame offsets:
#	150
#	24177
#	42725
#	62265
#	79382
#	96560
#	119192
#	138470
#	154797
#	173605
#
# Disc length: 2557 seconds
#
# Revision: 2
# Processed by: cddbd v1.5PL3 Copyright (c) Steve Scherf et al.
# Submitted via: CDex 1.51
#
DISCID=8709fb0a
DTITLE=DOKKEN - Under Lock And Key
DYEAR=1985
DGENRE=Metal
TTITLE0=Unchain The Night
TTITLE1=The Hunter
TTITLE2=In My Dreams
TTITLE3=Slippin' Away
TTITLE4=Lightnin' Strikes Again
TTITLE5=It's Not Love
TTITLE6=Jaded Heart
TTITLE7=Don't Lie To Me
TTITLE8=Will The Sun Rise
TTITLE9=Til The Livin' End
EXTD=YEAR: 1985
EXTT0=
EXTT1=
EXTT2=
EXTT3=
EXTT4=
EXTT5=
EXTT6=
EXTT7=
EXTT8=
EXTT9=
PLAYORDER=
